<mxfile host="app.diagrams.net" modified="2021-03-07T18:22:32.751Z" agent="5.0 (Windows NT 10.0; Win64; x64) AppleWebKit/537.36 (KHTML, like Gecko) Chrome/89.0.4389.82 Safari/537.36" etag="eoZuRCAVXmzQPTRu9rRh" version="14.4.4" type="github">
  <diagram id="uMHCdDmu51lUruLCewqE" name="Page-2">
    <mxGraphModel dx="782" dy="437" grid="1" gridSize="10" guides="1" tooltips="1" connect="1" arrows="1" fold="1" page="1" pageScale="1" pageWidth="827" pageHeight="1169" math="0" shadow="0">
      <root>
        <mxCell id="rQEQEOdsTUd7wWxaEc2Q-0" />
        <mxCell id="rQEQEOdsTUd7wWxaEc2Q-1" parent="rQEQEOdsTUd7wWxaEc2Q-0" />
        <mxCell id="nc3qBXWwIngRQdGXPClH-0" value="Szublimáló nyersanyag felszínre kerül" style="shape=umlFrame;whiteSpace=wrap;html=1;width=130;height=30;" parent="rQEQEOdsTUd7wWxaEc2Q-1" vertex="1">
          <mxGeometry x="20" y="10" width="440" height="310" as="geometry" />
        </mxCell>
        <mxCell id="rQEQEOdsTUd7wWxaEc2Q-2" value="v: Vizjeg" style="shape=umlLifeline;perimeter=lifelinePerimeter;whiteSpace=wrap;html=1;container=1;collapsible=0;recursiveResize=0;outlineConnect=0;" parent="rQEQEOdsTUd7wWxaEc2Q-1" vertex="1">
          <mxGeometry x="160" y="30" width="100" height="260" as="geometry" />
        </mxCell>
        <mxCell id="rQEQEOdsTUd7wWxaEc2Q-6" value="" style="html=1;points=[];perimeter=orthogonalPerimeter;" parent="rQEQEOdsTUd7wWxaEc2Q-2" vertex="1">
          <mxGeometry x="45" y="70" width="10" height="140" as="geometry" />
        </mxCell>
        <mxCell id="pmzzwq9JTzwIdC2IC2xl-0" value="a: Aszteroida" style="shape=umlLifeline;perimeter=lifelinePerimeter;whiteSpace=wrap;html=1;container=1;collapsible=0;recursiveResize=0;outlineConnect=0;" parent="rQEQEOdsTUd7wWxaEc2Q-1" vertex="1">
          <mxGeometry x="300" y="30" width="100" height="280" as="geometry" />
        </mxCell>
        <mxCell id="pmzzwq9JTzwIdC2IC2xl-1" value="" style="html=1;points=[];perimeter=orthogonalPerimeter;" parent="pmzzwq9JTzwIdC2IC2xl-0" vertex="1">
          <mxGeometry x="45" y="90" width="10" height="80" as="geometry" />
        </mxCell>
        <mxCell id="pmzzwq9JTzwIdC2IC2xl-2" value="2. Kinyer()" style="html=1;verticalAlign=bottom;endArrow=block;entryX=0;entryY=0;" parent="rQEQEOdsTUd7wWxaEc2Q-1" source="rQEQEOdsTUd7wWxaEc2Q-2" target="pmzzwq9JTzwIdC2IC2xl-1" edge="1">
          <mxGeometry x="0.1882" relative="1" as="geometry">
            <mxPoint x="275" y="120" as="sourcePoint" />
            <mxPoint as="offset" />
          </mxGeometry>
        </mxCell>
        <mxCell id="pmzzwq9JTzwIdC2IC2xl-3" value="ny: Nyersanyag" style="html=1;verticalAlign=bottom;endArrow=open;dashed=1;endSize=8;exitX=0;exitY=0.95;" parent="rQEQEOdsTUd7wWxaEc2Q-1" source="pmzzwq9JTzwIdC2IC2xl-1" target="rQEQEOdsTUd7wWxaEc2Q-2" edge="1">
          <mxGeometry relative="1" as="geometry">
            <mxPoint x="275" y="196" as="targetPoint" />
          </mxGeometry>
        </mxCell>
        <mxCell id="tSZZtqSjgruDq3-IJyse-0" value="" style="shape=umlDestroy;whiteSpace=wrap;html=1;strokeWidth=3;" parent="rQEQEOdsTUd7wWxaEc2Q-1" vertex="1">
          <mxGeometry x="195" y="280" width="30" height="30" as="geometry" />
        </mxCell>
        <mxCell id="rQEQEOdsTUd7wWxaEc2Q-7" value="1. Megfurva(a: Aszteroida)" style="html=1;verticalAlign=bottom;endArrow=block;entryX=0;entryY=0;" parent="rQEQEOdsTUd7wWxaEc2Q-1" target="rQEQEOdsTUd7wWxaEc2Q-6" edge="1">
          <mxGeometry x="0.037" relative="1" as="geometry">
            <mxPoint x="22" y="100" as="sourcePoint" />
            <mxPoint as="offset" />
          </mxGeometry>
        </mxCell>
        <mxCell id="rQEQEOdsTUd7wWxaEc2Q-8" value="" style="html=1;verticalAlign=bottom;endArrow=open;dashed=1;endSize=8;exitX=0;exitY=0.95;entryX=0;entryY=0.716;entryDx=0;entryDy=0;entryPerimeter=0;" parent="rQEQEOdsTUd7wWxaEc2Q-1" source="rQEQEOdsTUd7wWxaEc2Q-6" target="nc3qBXWwIngRQdGXPClH-0" edge="1">
          <mxGeometry x="1" y="-108" relative="1" as="geometry">
            <mxPoint x="70" y="233" as="targetPoint" />
            <mxPoint x="-41" y="8" as="offset" />
          </mxGeometry>
        </mxCell>
      </root>
    </mxGraphModel>
  </diagram>
</mxfile>
